<?xml version="1.0" encoding="UTF-8"?>
<svg width="711px" height="422px" viewBox="0 0 711 422" version="1.1" xmlns="http://www.w3.org/2000/svg" xmlns:xlink="http://www.w3.org/1999/xlink">
    <!-- Generator: Sketch 53.2 (72643) - https://sketchapp.com -->
    <title>Path</title>
    <desc>Created with Sketch.</desc>
    <g id="Page-1" stroke="none" stroke-width="1" fill="none" fill-rule="evenodd" opacity="0.200000003">
        <g id="home" transform="translate(-831.000000, -320.000000)" fill="#99DAFF" fill-rule="nonzero">
            <g id="Group-12" transform="translate(831.000000, 320.000000)">
                <g id="Asset-1">
                    <path d="M462.097301,365.958521 C400.245748,386.739587 335.298151,405.211646 270.32745,411.953947 C211.456417,418.118997 153.047479,407.520653 101.916554,377.087936 C55.7069519,349.587659 3.51320597,300.521252 6.60924933,242.034096 C9.49734948,187.680063 51.5018781,137.089712 92.0970138,104.394168 C182.783359,31.2217244 308.473477,13.5809082 421.43285,8.01620044 C476.14502,5.31466183 532.335896,8.01620044 584.344804,26.71916 C635.175366,45.0526784 686.606654,81.9967961 700.723688,136.997351 C718.283336,205.297789 654.514085,254.294925 606.363679,289.899819 C592.70104,299.967091 578.684127,309.541774 564.312941,318.62387 C550.45006,327.375008 534.900529,334.41748 521.592164,343.884411 C498.76462,360.047462 515.515601,400.27037 524.549578,420.289464 L528.523604,415.117287 C498.450121,410.551848 471.67141,393.590244 454.703764,368.359889 C452.393284,364.873287 446.640189,368.128988 448.996878,371.707949 C466.670411,398.605556 494.857129,416.825986 526.652115,421.905769 C528.021576,422.225929 529.451777,421.715376 530.308332,420.600574 C531.164886,419.485772 531.289204,417.973126 530.626141,416.733593 C526.64112,407.994441 523.477557,398.904031 521.176277,389.579666 C519.16616,381.24415 514.660723,367.205385 518.126443,358.962229 C521.753897,350.280361 531.180656,346.401229 538.735926,342.129565 C547.361719,337.234469 555.871987,332.170047 564.266732,326.936297 C590.918096,310.271009 616.456599,291.890998 640.720519,271.912651 C680.437672,239.217107 719.669625,197.470254 709.318674,141.800087 C699.221875,87.7231344 652.480863,48.054388 604.399771,26.8807905 C553.037798,4.32178867 496.084463,-1.15055877 440.563626,0.188665497 C379.629637,1.55931153 318.972529,8.83599929 259.445089,21.9164247 C201.22099,34.8930461 144.267655,56.4129946 96.3251925,92.5027796 C55.1524367,123.489658 17.4916107,166.945177 3.74425398,217.604798 C-11.7359628,274.63728 23.1060774,325.250721 65.6189116,360.070552 C115.028313,400.429122 177.232403,421.832947 241.030562,420.428004 C278.159978,419.573672 314.827298,412.023218 350.824578,403.34135 C388.839841,394.095601 426.357119,382.913099 463.229436,369.837653 C465.539916,368.983321 464.615724,365.219639 462.166615,365.958521 L462.097301,365.958521 Z" id="Path"></path>
                </g>
            </g>
        </g>
    </g>
</svg>