<?xml version="1.0" encoding="UTF-8"?>
<svg width="24px" height="24px" viewBox="0 0 24 24" version="1.1" xmlns="http://www.w3.org/2000/svg" xmlns:xlink="http://www.w3.org/1999/xlink">
    <!-- Generator: Sketch 52.2 (67145) - http://www.bohemiancoding.com/sketch -->
    <title>Group 16</title>
    <desc>Created with Sketch.</desc>
    <g id="Page-1" stroke="none" stroke-width="1" fill="none" fill-rule="evenodd">
        <g id="Get-Involved" transform="translate(-326.000000, -4412.000000)" fill="#FF150F" fill-rule="nonzero">
            <g id="Group-85" transform="translate(200.000000, 4032.000000)">
                <g id="Group-55" transform="translate(0.000000, 369.000000)">
                    <g id="Group-47">
                        <g id="Group-16" transform="translate(126.000000, 11.000000)">
                            <path d="M5.86307453,11.7679301 L12.1209502,18.0047157 C12.2175726,18.1009922 12.3670574,18.1009922 12.4636799,18.0047157 L18.7215409,11.7679301 C18.7955278,11.6942013 18.8199076,11.5793955 18.7829912,11.4785563 C18.7460749,11.3777171 18.6553885,11.3114024 18.5544116,11.3114066 L14.4355095,11.3114066 L14.4355095,0.270140347 C14.4355088,0.198492155 14.4089795,0.129778917 14.3617579,0.0791174727 C14.3145363,0.0284560283 14.2504909,-3.4835157e-06 14.1837114,3.57047725e-13 L10.400904,3.57047725e-13 C10.2618479,3.57281036e-13 10.1491206,0.120945953 10.1491206,0.270140347 L10.1491206,11.3114066 L6.03021844,11.3114066 C5.92923888,11.3113959 5.83854696,11.3777083 5.80162684,11.478549 C5.76470672,11.5793896 5.78908561,11.6941993 5.86307453,11.7679301 Z" id="Path"></path>
                            <path d="M22.8740712,18.0769231 L21.3461152,18.0769231 C21.275992,18.0769198 21.2087397,18.1036696 21.1591537,18.1512875 C21.1095678,18.1989054 21.0817101,18.2634907 21.0817094,18.3308345 L21.0817094,21.163227 L2.05675214,21.163227 L2.05675214,18.3308345 C2.05675486,18.2634922 2.02890041,18.1989073 1.97931701,18.1512891 C1.92973361,18.1036709 1.86248331,18.0769205 1.79236179,18.0769231 L0.264405771,18.0769231 C0.194282628,18.0769198 0.127030342,18.1036696 0.077444346,18.1512875 C0.0278583497,18.1989054 6.81790989e-07,18.2634907 8.17124146e-13,18.3308345 L8.17124146e-13,22.8845353 C8.17124146e-13,23.0247749 0.118378496,23.1384615 0.264405771,23.1384615 L22.8740712,23.1384615 C22.9441943,23.1384609 23.011445,23.1117073 23.0610281,23.0640866 C23.1106112,23.0164659 23.1384649,22.9518791 23.1384615,22.8845353 L23.1384615,18.3308345 C23.1384643,18.2634922 23.1106098,18.1989073 23.0610264,18.1512891 C23.011443,18.1036709 22.9441927,18.0769205 22.8740712,18.0769231 Z" id="Path"></path>
                        </g>
                    </g>
                </g>
            </g>
        </g>
    </g>
</svg>